<?xml version="1.0" encoding="utf-8"?>
<!-- Generator: Adobe Illustrator 24.0.1, SVG Export Plug-In . SVG Version: 6.00 Build 0)  -->
<svg version="1.1" id="Layer_1" xmlns="http://www.w3.org/2000/svg" xmlns:xlink="http://www.w3.org/1999/xlink" x="0px" y="0px"
	 viewBox="0 0 195 37" style="enable-background:new 0 0 195 37;" xml:space="preserve">
<style type="text/css">
	.st0{fill:#BF8339;}
	.st1{fill:#5FAAD9;}
	.st2{font-family:'Adam';}
	.st3{font-size:6.2908px;}
	.st4{letter-spacing:5;}
</style>
<g>
	<path class="st0" d="M24.3,15.3v7.2v0.2h-0.5v-0.2v-7.2H13.5v7.2v0.2H13v-0.2v-7.2v-0.5V7.6V7.4h0.5v0.2v7.2h10.4V7.6V7.4h0.5v0.2
		v7.2V15.3z"/>
	<path class="st1" d="M176.1,7.5h5.4h0.2v0.4h-0.2h-5.4v14.6v0.2h-0.4v-0.2V7.9h-5.4H170V7.5h0.2h5.4H176.1z"/>
	<g>
		<path class="st0" d="M147.5,22.5v0.2h-0.5v-0.2V7.6c0-0.2,0.3-0.3,0.4-0.1l10.4,14.3l0-14.2V7.4h0.5v0.2l0,14.9
			c0,0.2-0.3,0.3-0.4,0.1L147.5,8.3V22.5z"/>
		<g>
			<text transform="matrix(1 0 0 1 67.1825 33.9953)" class="st0 st2 st3 st4">DIGITAL</text>
			<path class="st0" d="M70.4,15.3c1.3,1,2.3,2.3,3.8,7.2l0.1,0.3h-0.5l-0.1-0.2c-1.6-5.2-2.6-6.2-4.1-7.3h-6.3v7.2v0.2H63v-0.2
				l0-7.2l0,0l0-0.2l0-7.4c0-0.1,0.1-0.2,0.2-0.2l6.5,0c2.5,0,4.5,1.8,4.5,4C74.3,13.4,72.6,15,70.4,15.3z M69,14.9L69,14.9l0.8,0
				c2.2,0,4-1.5,4-3.5c0-2-1.8-3.5-4-3.5h-6.3v7L69,14.9z"/>
			<path class="st1" d="M87.1,7.7V7.5h0.4v0.2v14.8v0.2h-0.4v-0.2V7.7z"/>
			<path class="st0" d="M100,7.9h-0.2V7.4h0.2h9.5c0.2,0,0.3,0.2,0.2,0.4L100,22.3h9.9h0.2v0.5H110H99.6c-0.2,0-0.3-0.2-0.2-0.4
				l9.7-14.5H100z"/>
			<path class="st0" d="M121,15.1c0-4.3,3.1-7.7,6.8-7.7c3.7,0,6.8,3.4,6.8,7.7c0,4.3-3,7.7-6.8,7.7C124,22.8,121,19.3,121,15.1z
				 M121.4,15.1c0,4,2.8,7.2,6.3,7.2c3.5,0,6.3-3.2,6.3-7.2c0-4-2.8-7.2-6.3-7.2C124.3,7.9,121.4,11.1,121.4,15.1z"/>
			<g>
				<polygon class="st0" points="1.6,15.1 25.5,14.8 49.5,14.7 97.5,14.6 145.5,14.7 169.5,14.8 193.4,15.1 169.5,15.3 145.5,15.5 
					97.5,15.6 49.5,15.5 25.5,15.3 				"/>
			</g>
			<path class="st0" d="M37.3,15.1c0-4,2.8-7.2,6.3-7.2c3.5,0,6.3,3.2,6.3,7.2h0.5c0-4.3-3-7.7-6.8-7.7c-3.7,0-6.8,3.4-6.8,7.7H37.3
				z"/>
		</g>
	</g>
</g>
</svg>
